<?xml version="1.0" encoding="UTF-8" standalone="no"?>
<!DOCTYPE svg PUBLIC "-//W3C//DTD SVG 1.1//EN"
 "http://www.w3.org/Graphics/SVG/1.1/DTD/svg11.dtd">
<!-- Generated by graphviz version 2.43.0 (0)
 -->
<!-- Title: snakemake_dag Pages: 1 -->
<svg width="2430pt" height="332pt"
 viewBox="0.00 0.00 2429.50 332.00" xmlns="http://www.w3.org/2000/svg" xmlns:xlink="http://www.w3.org/1999/xlink">
<g id="graph0" class="graph" transform="scale(1 1) rotate(0) translate(4 328)">
<title>snakemake_dag</title>
<polygon fill="white" stroke="transparent" points="-4,4 -4,-328 2425.5,-328 2425.5,4 -4,4"/>
<!-- 0 -->
<g id="node1" class="node">
<title>0</title>
<path fill="none" stroke="#c6d856" stroke-width="2" stroke-dasharray="5,2" d="M1187.5,-36C1187.5,-36 1157.5,-36 1157.5,-36 1151.5,-36 1145.5,-30 1145.5,-24 1145.5,-24 1145.5,-12 1145.5,-12 1145.5,-6 1151.5,0 1157.5,0 1157.5,0 1187.5,0 1187.5,0 1193.5,0 1199.5,-6 1199.5,-12 1199.5,-12 1199.5,-24 1199.5,-24 1199.5,-30 1193.5,-36 1187.5,-36"/>
<text text-anchor="middle" x="1172.5" y="-15.5" font-family="sans" font-size="10.00">all</text>
</g>
<!-- 1 -->
<g id="node2" class="node">
<title>1</title>
<path fill="none" stroke="#d8a456" stroke-width="2" stroke-dasharray="5,2" d="M407.5,-252C407.5,-252 327.5,-252 327.5,-252 321.5,-252 315.5,-246 315.5,-240 315.5,-240 315.5,-228 315.5,-228 315.5,-222 321.5,-216 327.5,-216 327.5,-216 407.5,-216 407.5,-216 413.5,-216 419.5,-222 419.5,-228 419.5,-228 419.5,-240 419.5,-240 419.5,-246 413.5,-252 407.5,-252"/>
<text text-anchor="middle" x="367.5" y="-237" font-family="sans" font-size="10.00">star_se</text>
<text text-anchor="middle" x="367.5" y="-226" font-family="sans" font-size="10.00">sample: control_1</text>
</g>
<!-- 1&#45;&gt;0 -->
<g id="edge1" class="edge">
<title>1&#45;&gt;0</title>
<path fill="none" stroke="grey" stroke-width="2" d="M350.08,-215.73C319.71,-183.59 263.93,-114.06 303.5,-72 332.42,-41.27 972.33,-23.82 1135.1,-19.87"/>
<polygon fill="grey" stroke="grey" stroke-width="2" points="1135.21,-23.37 1145.12,-19.63 1135.04,-16.37 1135.21,-23.37"/>
</g>
<!-- 38 -->
<g id="node39" class="node">
<title>38</title>
<path fill="none" stroke="#56a2d8" stroke-width="2" stroke-dasharray="5,2" d="M441.5,-180C441.5,-180 379.5,-180 379.5,-180 373.5,-180 367.5,-174 367.5,-168 367.5,-168 367.5,-156 367.5,-156 367.5,-150 373.5,-144 379.5,-144 379.5,-144 441.5,-144 441.5,-144 447.5,-144 453.5,-150 453.5,-156 453.5,-156 453.5,-168 453.5,-168 453.5,-174 447.5,-180 441.5,-180"/>
<text text-anchor="middle" x="410.5" y="-159.5" font-family="sans" font-size="10.00">featureCounts</text>
</g>
<!-- 1&#45;&gt;38 -->
<g id="edge74" class="edge">
<title>1&#45;&gt;38</title>
<path fill="none" stroke="grey" stroke-width="2" d="M378.13,-215.7C383.13,-207.56 389.19,-197.69 394.71,-188.7"/>
<polygon fill="grey" stroke="grey" stroke-width="2" points="397.74,-190.46 399.99,-180.1 391.78,-186.79 397.74,-190.46"/>
</g>
<!-- 2 -->
<g id="node3" class="node">
<title>2</title>
<path fill="none" stroke="#56d8c9" stroke-width="2" stroke-dasharray="5,2" d="M97,-324C97,-324 12,-324 12,-324 6,-324 0,-318 0,-312 0,-312 0,-300 0,-300 0,-294 6,-288 12,-288 12,-288 97,-288 97,-288 103,-288 109,-294 109,-300 109,-300 109,-312 109,-312 109,-318 103,-324 97,-324"/>
<text text-anchor="middle" x="54.5" y="-309" font-family="sans" font-size="10.00">bbduck_trim</text>
<text text-anchor="middle" x="54.5" y="-298" font-family="sans" font-size="10.00">samples: control_1</text>
</g>
<!-- 2&#45;&gt;1 -->
<g id="edge38" class="edge">
<title>2&#45;&gt;1</title>
<path fill="none" stroke="grey" stroke-width="2" d="M109.02,-292.81C163.79,-280.56 248.09,-261.71 305.4,-248.89"/>
<polygon fill="grey" stroke="grey" stroke-width="2" points="306.43,-252.24 315.42,-246.65 304.9,-245.41 306.43,-252.24"/>
</g>
<!-- 26 -->
<g id="node27" class="node">
<title>26</title>
<path fill="none" stroke="#78d856" stroke-width="2" stroke-dasharray="5,2" d="M45.5,-180C45.5,-180 15.5,-180 15.5,-180 9.5,-180 3.5,-174 3.5,-168 3.5,-168 3.5,-156 3.5,-156 3.5,-150 9.5,-144 15.5,-144 15.5,-144 45.5,-144 45.5,-144 51.5,-144 57.5,-150 57.5,-156 57.5,-156 57.5,-168 57.5,-168 57.5,-174 51.5,-180 45.5,-180"/>
<text text-anchor="middle" x="30.5" y="-159.5" font-family="sans" font-size="10.00">fastqc</text>
</g>
<!-- 2&#45;&gt;26 -->
<g id="edge62" class="edge">
<title>2&#45;&gt;26</title>
<path fill="none" stroke="grey" stroke-width="2" d="M51.61,-287.87C47.51,-263.67 40,-219.21 35.13,-190.39"/>
<polygon fill="grey" stroke="grey" stroke-width="2" points="38.52,-189.47 33.41,-180.19 31.62,-190.63 38.52,-189.47"/>
</g>
<!-- 3 -->
<g id="node4" class="node">
<title>3</title>
<path fill="none" stroke="#d85656" stroke-width="2" stroke-dasharray="5,2" d="M1093.5,-324C1093.5,-324 1049.5,-324 1049.5,-324 1043.5,-324 1037.5,-318 1037.5,-312 1037.5,-312 1037.5,-300 1037.5,-300 1037.5,-294 1043.5,-288 1049.5,-288 1049.5,-288 1093.5,-288 1093.5,-288 1099.5,-288 1105.5,-294 1105.5,-300 1105.5,-300 1105.5,-312 1105.5,-312 1105.5,-318 1099.5,-324 1093.5,-324"/>
<text text-anchor="middle" x="1071.5" y="-303.5" font-family="sans" font-size="10.00">star_index</text>
</g>
<!-- 3&#45;&gt;1 -->
<g id="edge39" class="edge">
<title>3&#45;&gt;1</title>
<path fill="none" stroke="grey" stroke-width="2" d="M1037.43,-291.4C1033.13,-290.06 1028.75,-288.88 1024.5,-288 767.91,-235 692.14,-294.32 429.79,-251.98"/>
<polygon fill="grey" stroke="grey" stroke-width="2" points="430.02,-248.47 419.58,-250.29 428.88,-255.38 430.02,-248.47"/>
</g>
<!-- 4 -->
<g id="node5" class="node">
<title>4</title>
<path fill="none" stroke="#d8a456" stroke-width="2" stroke-dasharray="5,2" d="M529.5,-252C529.5,-252 449.5,-252 449.5,-252 443.5,-252 437.5,-246 437.5,-240 437.5,-240 437.5,-228 437.5,-228 437.5,-222 443.5,-216 449.5,-216 449.5,-216 529.5,-216 529.5,-216 535.5,-216 541.5,-222 541.5,-228 541.5,-228 541.5,-240 541.5,-240 541.5,-246 535.5,-252 529.5,-252"/>
<text text-anchor="middle" x="489.5" y="-237" font-family="sans" font-size="10.00">star_se</text>
<text text-anchor="middle" x="489.5" y="-226" font-family="sans" font-size="10.00">sample: control_2</text>
</g>
<!-- 3&#45;&gt;4 -->
<g id="edge41" class="edge">
<title>3&#45;&gt;4</title>
<path fill="none" stroke="grey" stroke-width="2" d="M1037.42,-291.46C1033.12,-290.11 1028.74,-288.91 1024.5,-288 821.16,-244.35 760.48,-287.15 551.65,-251.98"/>
<polygon fill="grey" stroke="grey" stroke-width="2" points="552.04,-248.49 541.59,-250.24 550.85,-255.39 552.04,-248.49"/>
</g>
<!-- 6 -->
<g id="node7" class="node">
<title>6</title>
<path fill="none" stroke="#d8a456" stroke-width="2" stroke-dasharray="5,2" d="M651.5,-252C651.5,-252 571.5,-252 571.5,-252 565.5,-252 559.5,-246 559.5,-240 559.5,-240 559.5,-228 559.5,-228 559.5,-222 565.5,-216 571.5,-216 571.5,-216 651.5,-216 651.5,-216 657.5,-216 663.5,-222 663.5,-228 663.5,-228 663.5,-240 663.5,-240 663.5,-246 657.5,-252 651.5,-252"/>
<text text-anchor="middle" x="611.5" y="-237" font-family="sans" font-size="10.00">star_se</text>
<text text-anchor="middle" x="611.5" y="-226" font-family="sans" font-size="10.00">sample: control_3</text>
</g>
<!-- 3&#45;&gt;6 -->
<g id="edge43" class="edge">
<title>3&#45;&gt;6</title>
<path fill="none" stroke="grey" stroke-width="2" d="M1037.38,-291.62C1033.09,-290.25 1028.72,-288.99 1024.5,-288 888.18,-255.97 850.13,-271.74 711.5,-252 699.19,-250.25 686.06,-248.17 673.5,-246.07"/>
<polygon fill="grey" stroke="grey" stroke-width="2" points="674.02,-242.61 663.58,-244.4 672.85,-249.52 674.02,-242.61"/>
</g>
<!-- 8 -->
<g id="node9" class="node">
<title>8</title>
<path fill="none" stroke="#d8a456" stroke-width="2" stroke-dasharray="5,2" d="M825,-252C825,-252 732,-252 732,-252 726,-252 720,-246 720,-240 720,-240 720,-228 720,-228 720,-222 726,-216 732,-216 732,-216 825,-216 825,-216 831,-216 837,-222 837,-228 837,-228 837,-240 837,-240 837,-246 831,-252 825,-252"/>
<text text-anchor="middle" x="778.5" y="-237" font-family="sans" font-size="10.00">star_se</text>
<text text-anchor="middle" x="778.5" y="-226" font-family="sans" font-size="10.00">sample: feStarved_1</text>
</g>
<!-- 3&#45;&gt;8 -->
<g id="edge45" class="edge">
<title>3&#45;&gt;8</title>
<path fill="none" stroke="grey" stroke-width="2" d="M1037.29,-291.97C1033.02,-290.53 1028.68,-289.17 1024.5,-288 949.82,-267.07 927,-269.55 847.1,-252.06"/>
<polygon fill="grey" stroke="grey" stroke-width="2" points="847.59,-248.58 837.07,-249.82 846.06,-255.41 847.59,-248.58"/>
</g>
<!-- 10 -->
<g id="node11" class="node">
<title>10</title>
<path fill="none" stroke="#d8a456" stroke-width="2" stroke-dasharray="5,2" d="M960,-252C960,-252 867,-252 867,-252 861,-252 855,-246 855,-240 855,-240 855,-228 855,-228 855,-222 861,-216 867,-216 867,-216 960,-216 960,-216 966,-216 972,-222 972,-228 972,-228 972,-240 972,-240 972,-246 966,-252 960,-252"/>
<text text-anchor="middle" x="913.5" y="-237" font-family="sans" font-size="10.00">star_se</text>
<text text-anchor="middle" x="913.5" y="-226" font-family="sans" font-size="10.00">sample: feStarved_2</text>
</g>
<!-- 3&#45;&gt;10 -->
<g id="edge47" class="edge">
<title>3&#45;&gt;10</title>
<path fill="none" stroke="grey" stroke-width="2" d="M1037.22,-289.81C1015.02,-279.98 985.81,-267.03 961.34,-256.19"/>
<polygon fill="grey" stroke="grey" stroke-width="2" points="962.44,-252.85 951.88,-252 959.6,-259.25 962.44,-252.85"/>
</g>
<!-- 12 -->
<g id="node13" class="node">
<title>12</title>
<path fill="none" stroke="#d8a456" stroke-width="2" stroke-dasharray="5,2" d="M1095,-252C1095,-252 1002,-252 1002,-252 996,-252 990,-246 990,-240 990,-240 990,-228 990,-228 990,-222 996,-216 1002,-216 1002,-216 1095,-216 1095,-216 1101,-216 1107,-222 1107,-228 1107,-228 1107,-240 1107,-240 1107,-246 1101,-252 1095,-252"/>
<text text-anchor="middle" x="1048.5" y="-237" font-family="sans" font-size="10.00">star_se</text>
<text text-anchor="middle" x="1048.5" y="-226" font-family="sans" font-size="10.00">sample: feStarved_3</text>
</g>
<!-- 3&#45;&gt;12 -->
<g id="edge49" class="edge">
<title>3&#45;&gt;12</title>
<path fill="none" stroke="grey" stroke-width="2" d="M1065.81,-287.7C1063.25,-279.9 1060.17,-270.51 1057.32,-261.83"/>
<polygon fill="grey" stroke="grey" stroke-width="2" points="1060.57,-260.51 1054.12,-252.1 1053.92,-262.7 1060.57,-260.51"/>
</g>
<!-- 14 -->
<g id="node15" class="node">
<title>14</title>
<path fill="none" stroke="#d8a456" stroke-width="2" stroke-dasharray="5,2" d="M1243.5,-252C1243.5,-252 1137.5,-252 1137.5,-252 1131.5,-252 1125.5,-246 1125.5,-240 1125.5,-240 1125.5,-228 1125.5,-228 1125.5,-222 1131.5,-216 1137.5,-216 1137.5,-216 1243.5,-216 1243.5,-216 1249.5,-216 1255.5,-222 1255.5,-228 1255.5,-228 1255.5,-240 1255.5,-240 1255.5,-246 1249.5,-252 1243.5,-252"/>
<text text-anchor="middle" x="1190.5" y="-237" font-family="sans" font-size="10.00">star_se</text>
<text text-anchor="middle" x="1190.5" y="-226" font-family="sans" font-size="10.00">sample: h2o2Treated_1</text>
</g>
<!-- 3&#45;&gt;14 -->
<g id="edge51" class="edge">
<title>3&#45;&gt;14</title>
<path fill="none" stroke="grey" stroke-width="2" d="M1100.61,-287.88C1116.17,-278.72 1135.52,-267.34 1152.28,-257.48"/>
<polygon fill="grey" stroke="grey" stroke-width="2" points="1154.43,-260.28 1161.28,-252.19 1150.88,-254.24 1154.43,-260.28"/>
</g>
<!-- 16 -->
<g id="node17" class="node">
<title>16</title>
<path fill="none" stroke="#d8a456" stroke-width="2" stroke-dasharray="5,2" d="M1391.5,-252C1391.5,-252 1285.5,-252 1285.5,-252 1279.5,-252 1273.5,-246 1273.5,-240 1273.5,-240 1273.5,-228 1273.5,-228 1273.5,-222 1279.5,-216 1285.5,-216 1285.5,-216 1391.5,-216 1391.5,-216 1397.5,-216 1403.5,-222 1403.5,-228 1403.5,-228 1403.5,-240 1403.5,-240 1403.5,-246 1397.5,-252 1391.5,-252"/>
<text text-anchor="middle" x="1338.5" y="-237" font-family="sans" font-size="10.00">star_se</text>
<text text-anchor="middle" x="1338.5" y="-226" font-family="sans" font-size="10.00">sample: h2o2Treated_2</text>
</g>
<!-- 3&#45;&gt;16 -->
<g id="edge53" class="edge">
<title>3&#45;&gt;16</title>
<path fill="none" stroke="grey" stroke-width="2" d="M1105.51,-291.92C1109.53,-290.53 1113.59,-289.19 1117.5,-288 1131.64,-283.71 1204.93,-266.28 1263.29,-252.57"/>
<polygon fill="grey" stroke="grey" stroke-width="2" points="1264.32,-255.92 1273.26,-250.23 1262.72,-249.11 1264.32,-255.92"/>
</g>
<!-- 18 -->
<g id="node19" class="node">
<title>18</title>
<path fill="none" stroke="#d8a456" stroke-width="2" stroke-dasharray="5,2" d="M1539.5,-252C1539.5,-252 1433.5,-252 1433.5,-252 1427.5,-252 1421.5,-246 1421.5,-240 1421.5,-240 1421.5,-228 1421.5,-228 1421.5,-222 1427.5,-216 1433.5,-216 1433.5,-216 1539.5,-216 1539.5,-216 1545.5,-216 1551.5,-222 1551.5,-228 1551.5,-228 1551.5,-240 1551.5,-240 1551.5,-246 1545.5,-252 1539.5,-252"/>
<text text-anchor="middle" x="1486.5" y="-237" font-family="sans" font-size="10.00">star_se</text>
<text text-anchor="middle" x="1486.5" y="-226" font-family="sans" font-size="10.00">sample: h2o2Treated_3</text>
</g>
<!-- 3&#45;&gt;18 -->
<g id="edge55" class="edge">
<title>3&#45;&gt;18</title>
<path fill="none" stroke="grey" stroke-width="2" d="M1105.64,-291.39C1109.6,-290.11 1113.61,-288.94 1117.5,-288 1242.74,-257.66 1280.56,-273.97 1411.22,-252.1"/>
<polygon fill="grey" stroke="grey" stroke-width="2" points="1411.94,-255.53 1421.21,-250.39 1410.76,-248.63 1411.94,-255.53"/>
</g>
<!-- 20 -->
<g id="node21" class="node">
<title>20</title>
<path fill="none" stroke="#d8a456" stroke-width="2" stroke-dasharray="5,2" d="M1777.5,-252C1777.5,-252 1619.5,-252 1619.5,-252 1613.5,-252 1607.5,-246 1607.5,-240 1607.5,-240 1607.5,-228 1607.5,-228 1607.5,-222 1613.5,-216 1619.5,-216 1619.5,-216 1777.5,-216 1777.5,-216 1783.5,-216 1789.5,-222 1789.5,-228 1789.5,-228 1789.5,-240 1789.5,-240 1789.5,-246 1783.5,-252 1777.5,-252"/>
<text text-anchor="middle" x="1698.5" y="-237" font-family="sans" font-size="10.00">star_se</text>
<text text-anchor="middle" x="1698.5" y="-226" font-family="sans" font-size="10.00">sample: feStarved_h2o2Treated_1</text>
</g>
<!-- 3&#45;&gt;20 -->
<g id="edge57" class="edge">
<title>3&#45;&gt;20</title>
<path fill="none" stroke="grey" stroke-width="2" d="M1105.6,-291.24C1109.57,-289.98 1113.59,-288.86 1117.5,-288 1310.38,-245.37 1363.99,-272.08 1560.5,-252 1572.32,-250.79 1584.7,-249.42 1596.98,-247.99"/>
<polygon fill="grey" stroke="grey" stroke-width="2" points="1597.73,-251.43 1607.26,-246.78 1596.92,-244.48 1597.73,-251.43"/>
</g>
<!-- 22 -->
<g id="node23" class="node">
<title>22</title>
<path fill="none" stroke="#d8a456" stroke-width="2" stroke-dasharray="5,2" d="M1977.5,-252C1977.5,-252 1819.5,-252 1819.5,-252 1813.5,-252 1807.5,-246 1807.5,-240 1807.5,-240 1807.5,-228 1807.5,-228 1807.5,-222 1813.5,-216 1819.5,-216 1819.5,-216 1977.5,-216 1977.5,-216 1983.5,-216 1989.5,-222 1989.5,-228 1989.5,-228 1989.5,-240 1989.5,-240 1989.5,-246 1983.5,-252 1977.5,-252"/>
<text text-anchor="middle" x="1898.5" y="-237" font-family="sans" font-size="10.00">star_se</text>
<text text-anchor="middle" x="1898.5" y="-226" font-family="sans" font-size="10.00">sample: feStarved_h2o2Treated_2</text>
</g>
<!-- 3&#45;&gt;22 -->
<g id="edge59" class="edge">
<title>3&#45;&gt;22</title>
<path fill="none" stroke="grey" stroke-width="2" d="M1105.58,-291.12C1109.55,-289.89 1113.58,-288.81 1117.5,-288 1411.01,-227.46 1495.37,-284.15 1796.92,-252.08"/>
<polygon fill="grey" stroke="grey" stroke-width="2" points="1797.71,-255.52 1807.28,-250.96 1796.96,-248.56 1797.71,-255.52"/>
</g>
<!-- 24 -->
<g id="node25" class="node">
<title>24</title>
<path fill="none" stroke="#d8a456" stroke-width="2" stroke-dasharray="5,2" d="M2215.5,-252C2215.5,-252 2057.5,-252 2057.5,-252 2051.5,-252 2045.5,-246 2045.5,-240 2045.5,-240 2045.5,-228 2045.5,-228 2045.5,-222 2051.5,-216 2057.5,-216 2057.5,-216 2215.5,-216 2215.5,-216 2221.5,-216 2227.5,-222 2227.5,-228 2227.5,-228 2227.5,-240 2227.5,-240 2227.5,-246 2221.5,-252 2215.5,-252"/>
<text text-anchor="middle" x="2136.5" y="-237" font-family="sans" font-size="10.00">star_se</text>
<text text-anchor="middle" x="2136.5" y="-226" font-family="sans" font-size="10.00">sample: feStarved_h2o2Treated_3</text>
</g>
<!-- 3&#45;&gt;24 -->
<g id="edge61" class="edge">
<title>3&#45;&gt;24</title>
<path fill="none" stroke="grey" stroke-width="2" d="M1105.57,-291.08C1109.54,-289.85 1113.58,-288.78 1117.5,-288 1309.64,-249.57 1803.21,-267.99 1998.5,-252 2010.34,-251.03 2022.73,-249.81 2035.02,-248.46"/>
<polygon fill="grey" stroke="grey" stroke-width="2" points="2035.76,-251.9 2045.3,-247.3 2034.98,-244.94 2035.76,-251.9"/>
</g>
<!-- 4&#45;&gt;0 -->
<g id="edge2" class="edge">
<title>4&#45;&gt;0</title>
<path fill="none" stroke="grey" stroke-width="2" d="M437.34,-218.43C405.02,-208.24 367.93,-193.99 358.5,-180 349.56,-166.73 352.43,-158.8 358.5,-144 375.55,-102.42 388.68,-90.81 429.5,-72 493.89,-42.33 993.14,-24.6 1135.01,-20.13"/>
<polygon fill="grey" stroke="grey" stroke-width="2" points="1135.47,-23.61 1145.36,-19.8 1135.26,-16.62 1135.47,-23.61"/>
</g>
<!-- 39 -->
<g id="node40" class="node">
<title>39</title>
<path fill="none" stroke="#56a2d8" stroke-width="2" stroke-dasharray="5,2" d="M583.5,-180C583.5,-180 521.5,-180 521.5,-180 515.5,-180 509.5,-174 509.5,-168 509.5,-168 509.5,-156 509.5,-156 509.5,-150 515.5,-144 521.5,-144 521.5,-144 583.5,-144 583.5,-144 589.5,-144 595.5,-150 595.5,-156 595.5,-156 595.5,-168 595.5,-168 595.5,-174 589.5,-180 583.5,-180"/>
<text text-anchor="middle" x="552.5" y="-159.5" font-family="sans" font-size="10.00">featureCounts</text>
</g>
<!-- 4&#45;&gt;39 -->
<g id="edge75" class="edge">
<title>4&#45;&gt;39</title>
<path fill="none" stroke="grey" stroke-width="2" d="M505.07,-215.7C512.7,-207.22 522.02,-196.86 530.38,-187.58"/>
<polygon fill="grey" stroke="grey" stroke-width="2" points="533.02,-189.88 537.11,-180.1 527.81,-185.2 533.02,-189.88"/>
</g>
<!-- 5 -->
<g id="node6" class="node">
<title>5</title>
<path fill="none" stroke="#56d8c9" stroke-width="2" stroke-dasharray="5,2" d="M344,-324C344,-324 259,-324 259,-324 253,-324 247,-318 247,-312 247,-312 247,-300 247,-300 247,-294 253,-288 259,-288 259,-288 344,-288 344,-288 350,-288 356,-294 356,-300 356,-300 356,-312 356,-312 356,-318 350,-324 344,-324"/>
<text text-anchor="middle" x="301.5" y="-309" font-family="sans" font-size="10.00">bbduck_trim</text>
<text text-anchor="middle" x="301.5" y="-298" font-family="sans" font-size="10.00">samples: control_2</text>
</g>
<!-- 5&#45;&gt;4 -->
<g id="edge40" class="edge">
<title>5&#45;&gt;4</title>
<path fill="none" stroke="grey" stroke-width="2" d="M347.49,-287.88C373.65,-278.14 406.59,-265.87 434.15,-255.61"/>
<polygon fill="grey" stroke="grey" stroke-width="2" points="435.51,-258.84 443.66,-252.07 433.07,-252.28 435.51,-258.84"/>
</g>
<!-- 27 -->
<g id="node28" class="node">
<title>27</title>
<path fill="none" stroke="#78d856" stroke-width="2" stroke-dasharray="5,2" d="M100.5,-108C100.5,-108 70.5,-108 70.5,-108 64.5,-108 58.5,-102 58.5,-96 58.5,-96 58.5,-84 58.5,-84 58.5,-78 64.5,-72 70.5,-72 70.5,-72 100.5,-72 100.5,-72 106.5,-72 112.5,-78 112.5,-84 112.5,-84 112.5,-96 112.5,-96 112.5,-102 106.5,-108 100.5,-108"/>
<text text-anchor="middle" x="85.5" y="-87.5" font-family="sans" font-size="10.00">fastqc</text>
</g>
<!-- 5&#45;&gt;27 -->
<g id="edge63" class="edge">
<title>5&#45;&gt;27</title>
<path fill="none" stroke="grey" stroke-width="2" d="M246.86,-295.38C217.65,-287.83 182.81,-274.65 158.5,-252 119.22,-215.41 99.54,-153.66 91.01,-118.22"/>
<polygon fill="grey" stroke="grey" stroke-width="2" points="94.34,-117.09 88.71,-108.12 87.52,-118.64 94.34,-117.09"/>
</g>
<!-- 6&#45;&gt;0 -->
<g id="edge3" class="edge">
<title>6&#45;&gt;0</title>
<path fill="none" stroke="grey" stroke-width="2" d="M563.29,-215.89C536.85,-205.43 507.96,-191.83 500.5,-180 456.9,-110.87 591.97,-73.74 596.5,-72 695.57,-33.85 1023.89,-22.56 1135.21,-19.79"/>
<polygon fill="grey" stroke="grey" stroke-width="2" points="1135.38,-23.29 1145.29,-19.55 1135.21,-16.29 1135.38,-23.29"/>
</g>
<!-- 40 -->
<g id="node41" class="node">
<title>40</title>
<path fill="none" stroke="#56a2d8" stroke-width="2" stroke-dasharray="5,2" d="M687.5,-180C687.5,-180 625.5,-180 625.5,-180 619.5,-180 613.5,-174 613.5,-168 613.5,-168 613.5,-156 613.5,-156 613.5,-150 619.5,-144 625.5,-144 625.5,-144 687.5,-144 687.5,-144 693.5,-144 699.5,-150 699.5,-156 699.5,-156 699.5,-168 699.5,-168 699.5,-174 693.5,-180 687.5,-180"/>
<text text-anchor="middle" x="656.5" y="-159.5" font-family="sans" font-size="10.00">featureCounts</text>
</g>
<!-- 6&#45;&gt;40 -->
<g id="edge76" class="edge">
<title>6&#45;&gt;40</title>
<path fill="none" stroke="grey" stroke-width="2" d="M622.62,-215.7C627.86,-207.56 634.2,-197.69 639.98,-188.7"/>
<polygon fill="grey" stroke="grey" stroke-width="2" points="643.04,-190.41 645.5,-180.1 637.15,-186.62 643.04,-190.41"/>
</g>
<!-- 7 -->
<g id="node8" class="node">
<title>7</title>
<path fill="none" stroke="#56d8c9" stroke-width="2" stroke-dasharray="5,2" d="M531,-324C531,-324 446,-324 446,-324 440,-324 434,-318 434,-312 434,-312 434,-300 434,-300 434,-294 440,-288 446,-288 446,-288 531,-288 531,-288 537,-288 543,-294 543,-300 543,-300 543,-312 543,-312 543,-318 537,-324 531,-324"/>
<text text-anchor="middle" x="488.5" y="-309" font-family="sans" font-size="10.00">bbduck_trim</text>
<text text-anchor="middle" x="488.5" y="-298" font-family="sans" font-size="10.00">samples: control_3</text>
</g>
<!-- 7&#45;&gt;6 -->
<g id="edge42" class="edge">
<title>7&#45;&gt;6</title>
<path fill="none" stroke="grey" stroke-width="2" d="M518.59,-287.88C534.82,-278.64 555.04,-267.13 572.47,-257.21"/>
<polygon fill="grey" stroke="grey" stroke-width="2" points="574.34,-260.18 581.3,-252.19 570.87,-254.09 574.34,-260.18"/>
</g>
<!-- 28 -->
<g id="node29" class="node">
<title>28</title>
<path fill="none" stroke="#78d856" stroke-width="2" stroke-dasharray="5,2" d="M172.5,-108C172.5,-108 142.5,-108 142.5,-108 136.5,-108 130.5,-102 130.5,-96 130.5,-96 130.5,-84 130.5,-84 130.5,-78 136.5,-72 142.5,-72 142.5,-72 172.5,-72 172.5,-72 178.5,-72 184.5,-78 184.5,-84 184.5,-84 184.5,-96 184.5,-96 184.5,-102 178.5,-108 172.5,-108"/>
<text text-anchor="middle" x="157.5" y="-87.5" font-family="sans" font-size="10.00">fastqc</text>
</g>
<!-- 7&#45;&gt;28 -->
<g id="edge64" class="edge">
<title>7&#45;&gt;28</title>
<path fill="none" stroke="grey" stroke-width="2" d="M433.83,-297.55C357.93,-286.75 228.07,-266.48 211.5,-252 172.47,-217.9 161.58,-154.7 158.59,-118.46"/>
<polygon fill="grey" stroke="grey" stroke-width="2" points="162.06,-117.88 157.89,-108.13 155.07,-118.35 162.06,-117.88"/>
</g>
<!-- 8&#45;&gt;0 -->
<g id="edge4" class="edge">
<title>8&#45;&gt;0</title>
<path fill="none" stroke="grey" stroke-width="2" d="M776.2,-215.74C774.49,-197.15 774,-167.12 784.5,-144 803.22,-102.8 816.27,-92.73 856.5,-72 948.59,-24.55 1073.92,-18.09 1135.4,-18.09"/>
<polygon fill="grey" stroke="grey" stroke-width="2" points="1135.39,-21.59 1145.41,-18.15 1135.43,-14.59 1135.39,-21.59"/>
</g>
<!-- 41 -->
<g id="node42" class="node">
<title>41</title>
<path fill="none" stroke="#56a2d8" stroke-width="2" stroke-dasharray="5,2" d="M867.5,-180C867.5,-180 805.5,-180 805.5,-180 799.5,-180 793.5,-174 793.5,-168 793.5,-168 793.5,-156 793.5,-156 793.5,-150 799.5,-144 805.5,-144 805.5,-144 867.5,-144 867.5,-144 873.5,-144 879.5,-150 879.5,-156 879.5,-156 879.5,-168 879.5,-168 879.5,-174 873.5,-180 867.5,-180"/>
<text text-anchor="middle" x="836.5" y="-159.5" font-family="sans" font-size="10.00">featureCounts</text>
</g>
<!-- 8&#45;&gt;41 -->
<g id="edge77" class="edge">
<title>8&#45;&gt;41</title>
<path fill="none" stroke="grey" stroke-width="2" d="M792.84,-215.7C799.79,-207.3 808.27,-197.07 815.9,-187.86"/>
<polygon fill="grey" stroke="grey" stroke-width="2" points="818.64,-190.04 822.33,-180.1 813.25,-185.57 818.64,-190.04"/>
</g>
<!-- 9 -->
<g id="node10" class="node">
<title>9</title>
<path fill="none" stroke="#56d8c9" stroke-width="2" stroke-dasharray="5,2" d="M701.5,-324C701.5,-324 603.5,-324 603.5,-324 597.5,-324 591.5,-318 591.5,-312 591.5,-312 591.5,-300 591.5,-300 591.5,-294 597.5,-288 603.5,-288 603.5,-288 701.5,-288 701.5,-288 707.5,-288 713.5,-294 713.5,-300 713.5,-300 713.5,-312 713.5,-312 713.5,-318 707.5,-324 701.5,-324"/>
<text text-anchor="middle" x="652.5" y="-309" font-family="sans" font-size="10.00">bbduck_trim</text>
<text text-anchor="middle" x="652.5" y="-298" font-family="sans" font-size="10.00">samples: feStarved_1</text>
</g>
<!-- 9&#45;&gt;8 -->
<g id="edge44" class="edge">
<title>9&#45;&gt;8</title>
<path fill="none" stroke="grey" stroke-width="2" d="M683.32,-287.88C699.95,-278.64 720.66,-267.13 738.52,-257.21"/>
<polygon fill="grey" stroke="grey" stroke-width="2" points="740.52,-260.11 747.56,-252.19 737.12,-253.99 740.52,-260.11"/>
</g>
<!-- 29 -->
<g id="node30" class="node">
<title>29</title>
<path fill="none" stroke="#78d856" stroke-width="2" stroke-dasharray="5,2" d="M244.5,-108C244.5,-108 214.5,-108 214.5,-108 208.5,-108 202.5,-102 202.5,-96 202.5,-96 202.5,-84 202.5,-84 202.5,-78 208.5,-72 214.5,-72 214.5,-72 244.5,-72 244.5,-72 250.5,-72 256.5,-78 256.5,-84 256.5,-84 256.5,-96 256.5,-96 256.5,-102 250.5,-108 244.5,-108"/>
<text text-anchor="middle" x="229.5" y="-87.5" font-family="sans" font-size="10.00">fastqc</text>
</g>
<!-- 9&#45;&gt;29 -->
<g id="edge65" class="edge">
<title>9&#45;&gt;29</title>
<path fill="none" stroke="grey" stroke-width="2" d="M591.48,-294.23C578.62,-292.07 565.13,-289.89 552.5,-288 490.67,-278.76 321.77,-291.73 273.5,-252 234.07,-219.54 228.08,-155.45 228.17,-118.68"/>
<polygon fill="grey" stroke="grey" stroke-width="2" points="231.68,-118.27 228.36,-108.21 224.68,-118.14 231.68,-118.27"/>
</g>
<!-- 10&#45;&gt;0 -->
<g id="edge5" class="edge">
<title>10&#45;&gt;0</title>
<path fill="none" stroke="grey" stroke-width="2" d="M912.79,-215.94C912.72,-197.26 914.71,-166.91 926.5,-144 947.65,-102.92 961.7,-95.47 1001.5,-72 1043.9,-47 1099.28,-32.65 1135.36,-25.34"/>
<polygon fill="grey" stroke="grey" stroke-width="2" points="1136.3,-28.72 1145.44,-23.37 1134.96,-21.85 1136.3,-28.72"/>
</g>
<!-- 42 -->
<g id="node43" class="node">
<title>42</title>
<path fill="none" stroke="#56a2d8" stroke-width="2" stroke-dasharray="5,2" d="M1009.5,-180C1009.5,-180 947.5,-180 947.5,-180 941.5,-180 935.5,-174 935.5,-168 935.5,-168 935.5,-156 935.5,-156 935.5,-150 941.5,-144 947.5,-144 947.5,-144 1009.5,-144 1009.5,-144 1015.5,-144 1021.5,-150 1021.5,-156 1021.5,-156 1021.5,-168 1021.5,-168 1021.5,-174 1015.5,-180 1009.5,-180"/>
<text text-anchor="middle" x="978.5" y="-159.5" font-family="sans" font-size="10.00">featureCounts</text>
</g>
<!-- 10&#45;&gt;42 -->
<g id="edge78" class="edge">
<title>10&#45;&gt;42</title>
<path fill="none" stroke="grey" stroke-width="2" d="M929.57,-215.7C937.44,-207.22 947.06,-196.86 955.67,-187.58"/>
<polygon fill="grey" stroke="grey" stroke-width="2" points="958.38,-189.81 962.62,-180.1 953.25,-185.05 958.38,-189.81"/>
</g>
<!-- 11 -->
<g id="node12" class="node">
<title>11</title>
<path fill="none" stroke="#56d8c9" stroke-width="2" stroke-dasharray="5,2" d="M856.5,-324C856.5,-324 758.5,-324 758.5,-324 752.5,-324 746.5,-318 746.5,-312 746.5,-312 746.5,-300 746.5,-300 746.5,-294 752.5,-288 758.5,-288 758.5,-288 856.5,-288 856.5,-288 862.5,-288 868.5,-294 868.5,-300 868.5,-300 868.5,-312 868.5,-312 868.5,-318 862.5,-324 856.5,-324"/>
<text text-anchor="middle" x="807.5" y="-309" font-family="sans" font-size="10.00">bbduck_trim</text>
<text text-anchor="middle" x="807.5" y="-298" font-family="sans" font-size="10.00">samples: feStarved_2</text>
</g>
<!-- 11&#45;&gt;10 -->
<g id="edge46" class="edge">
<title>11&#45;&gt;10</title>
<path fill="none" stroke="grey" stroke-width="2" d="M833.43,-287.88C847.16,-278.81 864.21,-267.55 879.04,-257.76"/>
<polygon fill="grey" stroke="grey" stroke-width="2" points="881.05,-260.62 887.47,-252.19 877.2,-254.78 881.05,-260.62"/>
</g>
<!-- 30 -->
<g id="node31" class="node">
<title>30</title>
<path fill="none" stroke="#78d856" stroke-width="2" stroke-dasharray="5,2" d="M354.5,-108C354.5,-108 324.5,-108 324.5,-108 318.5,-108 312.5,-102 312.5,-96 312.5,-96 312.5,-84 312.5,-84 312.5,-78 318.5,-72 324.5,-72 324.5,-72 354.5,-72 354.5,-72 360.5,-72 366.5,-78 366.5,-84 366.5,-84 366.5,-96 366.5,-96 366.5,-102 360.5,-108 354.5,-108"/>
<text text-anchor="middle" x="339.5" y="-87.5" font-family="sans" font-size="10.00">fastqc</text>
</g>
<!-- 11&#45;&gt;30 -->
<g id="edge66" class="edge">
<title>11&#45;&gt;30</title>
<path fill="none" stroke="grey" stroke-width="2" d="M746.35,-291.93C738.35,-290.46 730.25,-289.11 722.5,-288 676.57,-281.44 337.86,-286.19 306.5,-252 272.33,-214.75 301.26,-151.95 322.32,-116.8"/>
<polygon fill="grey" stroke="grey" stroke-width="2" points="325.43,-118.42 327.73,-108.08 319.48,-114.73 325.43,-118.42"/>
</g>
<!-- 12&#45;&gt;0 -->
<g id="edge6" class="edge">
<title>12&#45;&gt;0</title>
<path fill="none" stroke="grey" stroke-width="2" d="M1050.52,-215.71C1053.09,-197.36 1058.46,-167.78 1068.5,-144 1083.37,-108.8 1090.88,-101.23 1115.5,-72 1124.16,-61.72 1134.68,-51.44 1144.33,-42.7"/>
<polygon fill="grey" stroke="grey" stroke-width="2" points="1146.66,-45.3 1151.82,-36.05 1142.02,-40.07 1146.66,-45.3"/>
</g>
<!-- 43 -->
<g id="node44" class="node">
<title>43</title>
<path fill="none" stroke="#56a2d8" stroke-width="2" stroke-dasharray="5,2" d="M1151.5,-180C1151.5,-180 1089.5,-180 1089.5,-180 1083.5,-180 1077.5,-174 1077.5,-168 1077.5,-168 1077.5,-156 1077.5,-156 1077.5,-150 1083.5,-144 1089.5,-144 1089.5,-144 1151.5,-144 1151.5,-144 1157.5,-144 1163.5,-150 1163.5,-156 1163.5,-156 1163.5,-168 1163.5,-168 1163.5,-174 1157.5,-180 1151.5,-180"/>
<text text-anchor="middle" x="1120.5" y="-159.5" font-family="sans" font-size="10.00">featureCounts</text>
</g>
<!-- 12&#45;&gt;43 -->
<g id="edge79" class="edge">
<title>12&#45;&gt;43</title>
<path fill="none" stroke="grey" stroke-width="2" d="M1066.3,-215.7C1075.1,-207.14 1085.88,-196.66 1095.5,-187.3"/>
<polygon fill="grey" stroke="grey" stroke-width="2" points="1098.18,-189.58 1102.91,-180.1 1093.3,-184.57 1098.18,-189.58"/>
</g>
<!-- 13 -->
<g id="node14" class="node">
<title>13</title>
<path fill="none" stroke="#56d8c9" stroke-width="2" stroke-dasharray="5,2" d="M1003.5,-324C1003.5,-324 905.5,-324 905.5,-324 899.5,-324 893.5,-318 893.5,-312 893.5,-312 893.5,-300 893.5,-300 893.5,-294 899.5,-288 905.5,-288 905.5,-288 1003.5,-288 1003.5,-288 1009.5,-288 1015.5,-294 1015.5,-300 1015.5,-300 1015.5,-312 1015.5,-312 1015.5,-318 1009.5,-324 1003.5,-324"/>
<text text-anchor="middle" x="954.5" y="-309" font-family="sans" font-size="10.00">bbduck_trim</text>
<text text-anchor="middle" x="954.5" y="-298" font-family="sans" font-size="10.00">samples: feStarved_3</text>
</g>
<!-- 13&#45;&gt;12 -->
<g id="edge48" class="edge">
<title>13&#45;&gt;12</title>
<path fill="none" stroke="grey" stroke-width="2" d="M977.74,-287.7C989.69,-278.8 1004.42,-267.82 1017.35,-258.2"/>
<polygon fill="grey" stroke="grey" stroke-width="2" points="1019.6,-260.88 1025.53,-252.1 1015.42,-255.27 1019.6,-260.88"/>
</g>
<!-- 31 -->
<g id="node32" class="node">
<title>31</title>
<path fill="none" stroke="#78d856" stroke-width="2" stroke-dasharray="5,2" d="M726.5,-108C726.5,-108 696.5,-108 696.5,-108 690.5,-108 684.5,-102 684.5,-96 684.5,-96 684.5,-84 684.5,-84 684.5,-78 690.5,-72 696.5,-72 696.5,-72 726.5,-72 726.5,-72 732.5,-72 738.5,-78 738.5,-84 738.5,-84 738.5,-96 738.5,-96 738.5,-102 732.5,-108 726.5,-108"/>
<text text-anchor="middle" x="711.5" y="-87.5" font-family="sans" font-size="10.00">fastqc</text>
</g>
<!-- 13&#45;&gt;31 -->
<g id="edge67" class="edge">
<title>13&#45;&gt;31</title>
<path fill="none" stroke="grey" stroke-width="2" d="M893.14,-291.43C887.85,-290.27 882.58,-289.11 877.5,-288 803.75,-271.86 758.89,-310.77 711.5,-252 707.39,-246.9 709.3,-162.87 710.62,-118.29"/>
<polygon fill="grey" stroke="grey" stroke-width="2" points="714.12,-118.24 710.93,-108.14 707.12,-118.02 714.12,-118.24"/>
</g>
<!-- 14&#45;&gt;0 -->
<g id="edge7" class="edge">
<title>14&#45;&gt;0</title>
<path fill="none" stroke="grey" stroke-width="2" d="M1236.05,-215.98C1251.75,-207.66 1267.61,-195.93 1276.5,-180 1284.3,-166.03 1280.68,-159.45 1276.5,-144 1266.83,-108.24 1258.25,-100.44 1234.5,-72 1225.69,-61.45 1214.65,-51.28 1204.33,-42.72"/>
<polygon fill="grey" stroke="grey" stroke-width="2" points="1206.26,-39.78 1196.28,-36.23 1201.86,-45.23 1206.26,-39.78"/>
</g>
<!-- 44 -->
<g id="node45" class="node">
<title>44</title>
<path fill="none" stroke="#56a2d8" stroke-width="2" stroke-dasharray="5,2" d="M1255.5,-180C1255.5,-180 1193.5,-180 1193.5,-180 1187.5,-180 1181.5,-174 1181.5,-168 1181.5,-168 1181.5,-156 1181.5,-156 1181.5,-150 1187.5,-144 1193.5,-144 1193.5,-144 1255.5,-144 1255.5,-144 1261.5,-144 1267.5,-150 1267.5,-156 1267.5,-156 1267.5,-168 1267.5,-168 1267.5,-174 1261.5,-180 1255.5,-180"/>
<text text-anchor="middle" x="1224.5" y="-159.5" font-family="sans" font-size="10.00">featureCounts</text>
</g>
<!-- 14&#45;&gt;44 -->
<g id="edge80" class="edge">
<title>14&#45;&gt;44</title>
<path fill="none" stroke="grey" stroke-width="2" d="M1198.9,-215.7C1202.77,-207.73 1207.45,-198.1 1211.74,-189.26"/>
<polygon fill="grey" stroke="grey" stroke-width="2" points="1214.97,-190.63 1216.19,-180.1 1208.67,-187.57 1214.97,-190.63"/>
</g>
<!-- 15 -->
<g id="node16" class="node">
<title>15</title>
<path fill="none" stroke="#56d8c9" stroke-width="2" stroke-dasharray="5,2" d="M1249,-324C1249,-324 1138,-324 1138,-324 1132,-324 1126,-318 1126,-312 1126,-312 1126,-300 1126,-300 1126,-294 1132,-288 1138,-288 1138,-288 1249,-288 1249,-288 1255,-288 1261,-294 1261,-300 1261,-300 1261,-312 1261,-312 1261,-318 1255,-324 1249,-324"/>
<text text-anchor="middle" x="1193.5" y="-309" font-family="sans" font-size="10.00">bbduck_trim</text>
<text text-anchor="middle" x="1193.5" y="-298" font-family="sans" font-size="10.00">samples: h2o2Treated_1</text>
</g>
<!-- 15&#45;&gt;14 -->
<g id="edge50" class="edge">
<title>15&#45;&gt;14</title>
<path fill="none" stroke="grey" stroke-width="2" d="M1192.76,-287.7C1192.43,-279.98 1192.03,-270.71 1191.66,-262.11"/>
<polygon fill="grey" stroke="grey" stroke-width="2" points="1195.16,-261.95 1191.23,-252.1 1188.16,-262.25 1195.16,-261.95"/>
</g>
<!-- 32 -->
<g id="node33" class="node">
<title>32</title>
<path fill="none" stroke="#78d856" stroke-width="2" stroke-dasharray="5,2" d="M1578.5,-108C1578.5,-108 1548.5,-108 1548.5,-108 1542.5,-108 1536.5,-102 1536.5,-96 1536.5,-96 1536.5,-84 1536.5,-84 1536.5,-78 1542.5,-72 1548.5,-72 1548.5,-72 1578.5,-72 1578.5,-72 1584.5,-72 1590.5,-78 1590.5,-84 1590.5,-84 1590.5,-96 1590.5,-96 1590.5,-102 1584.5,-108 1578.5,-108"/>
<text text-anchor="middle" x="1563.5" y="-87.5" font-family="sans" font-size="10.00">fastqc</text>
</g>
<!-- 15&#45;&gt;32 -->
<g id="edge68" class="edge">
<title>15&#45;&gt;32</title>
<path fill="none" stroke="grey" stroke-width="2" d="M1261.17,-291.49C1268.02,-290.25 1274.89,-289.06 1281.5,-288 1343.22,-278.07 1518.79,-298.56 1560.5,-252 1593.27,-215.42 1582.48,-153.24 1572.48,-117.81"/>
<polygon fill="grey" stroke="grey" stroke-width="2" points="1575.81,-116.73 1569.59,-108.15 1569.1,-118.74 1575.81,-116.73"/>
</g>
<!-- 16&#45;&gt;0 -->
<g id="edge8" class="edge">
<title>16&#45;&gt;0</title>
<path fill="none" stroke="grey" stroke-width="2" d="M1379.68,-216C1394.71,-207.54 1410.07,-195.71 1418.5,-180 1426.07,-165.9 1425.05,-158.6 1418.5,-144 1382.03,-62.78 1268.87,-33.61 1209.58,-23.72"/>
<polygon fill="grey" stroke="grey" stroke-width="2" points="1209.94,-20.23 1199.52,-22.14 1208.85,-27.15 1209.94,-20.23"/>
</g>
<!-- 45 -->
<g id="node46" class="node">
<title>45</title>
<path fill="none" stroke="#56a2d8" stroke-width="2" stroke-dasharray="5,2" d="M1397.5,-180C1397.5,-180 1335.5,-180 1335.5,-180 1329.5,-180 1323.5,-174 1323.5,-168 1323.5,-168 1323.5,-156 1323.5,-156 1323.5,-150 1329.5,-144 1335.5,-144 1335.5,-144 1397.5,-144 1397.5,-144 1403.5,-144 1409.5,-150 1409.5,-156 1409.5,-156 1409.5,-168 1409.5,-168 1409.5,-174 1403.5,-180 1397.5,-180"/>
<text text-anchor="middle" x="1366.5" y="-159.5" font-family="sans" font-size="10.00">featureCounts</text>
</g>
<!-- 16&#45;&gt;45 -->
<g id="edge81" class="edge">
<title>16&#45;&gt;45</title>
<path fill="none" stroke="grey" stroke-width="2" d="M1345.42,-215.7C1348.57,-207.81 1352.38,-198.3 1355.88,-189.55"/>
<polygon fill="grey" stroke="grey" stroke-width="2" points="1359.19,-190.69 1359.66,-180.1 1352.69,-188.09 1359.19,-190.69"/>
</g>
<!-- 17 -->
<g id="node18" class="node">
<title>17</title>
<path fill="none" stroke="#56d8c9" stroke-width="2" stroke-dasharray="5,2" d="M1413,-324C1413,-324 1302,-324 1302,-324 1296,-324 1290,-318 1290,-312 1290,-312 1290,-300 1290,-300 1290,-294 1296,-288 1302,-288 1302,-288 1413,-288 1413,-288 1419,-288 1425,-294 1425,-300 1425,-300 1425,-312 1425,-312 1425,-318 1419,-324 1413,-324"/>
<text text-anchor="middle" x="1357.5" y="-309" font-family="sans" font-size="10.00">bbduck_trim</text>
<text text-anchor="middle" x="1357.5" y="-298" font-family="sans" font-size="10.00">samples: h2o2Treated_2</text>
</g>
<!-- 17&#45;&gt;16 -->
<g id="edge52" class="edge">
<title>17&#45;&gt;16</title>
<path fill="none" stroke="grey" stroke-width="2" d="M1352.8,-287.7C1350.69,-279.9 1348.14,-270.51 1345.78,-261.83"/>
<polygon fill="grey" stroke="grey" stroke-width="2" points="1349.14,-260.84 1343.14,-252.1 1342.38,-262.67 1349.14,-260.84"/>
</g>
<!-- 33 -->
<g id="node34" class="node">
<title>33</title>
<path fill="none" stroke="#78d856" stroke-width="2" stroke-dasharray="5,2" d="M1979.5,-108C1979.5,-108 1949.5,-108 1949.5,-108 1943.5,-108 1937.5,-102 1937.5,-96 1937.5,-96 1937.5,-84 1937.5,-84 1937.5,-78 1943.5,-72 1949.5,-72 1949.5,-72 1979.5,-72 1979.5,-72 1985.5,-72 1991.5,-78 1991.5,-84 1991.5,-84 1991.5,-96 1991.5,-96 1991.5,-102 1985.5,-108 1979.5,-108"/>
<text text-anchor="middle" x="1964.5" y="-87.5" font-family="sans" font-size="10.00">fastqc</text>
</g>
<!-- 17&#45;&gt;33 -->
<g id="edge69" class="edge">
<title>17&#45;&gt;33</title>
<path fill="none" stroke="grey" stroke-width="2" d="M1425.39,-290.16C1430.15,-289.36 1434.89,-288.62 1439.5,-288 1501.18,-279.66 1955.93,-297.4 1998.5,-252 2016.47,-232.84 1991.07,-158.11 1975.34,-117.55"/>
<polygon fill="grey" stroke="grey" stroke-width="2" points="1978.51,-116.04 1971.59,-108.03 1972,-118.61 1978.51,-116.04"/>
</g>
<!-- 18&#45;&gt;0 -->
<g id="edge9" class="edge">
<title>18&#45;&gt;0</title>
<path fill="none" stroke="grey" stroke-width="2" d="M1551.67,-221.19C1611.74,-209.65 1693.01,-192.1 1702.5,-180 1712.37,-167.41 1708.72,-158.74 1702.5,-144 1684.65,-101.73 1669.94,-91.7 1628.5,-72 1554.44,-36.8 1304.79,-23.94 1209.7,-20.25"/>
<polygon fill="grey" stroke="grey" stroke-width="2" points="1209.8,-16.76 1199.68,-19.88 1209.54,-23.75 1209.8,-16.76"/>
</g>
<!-- 46 -->
<g id="node47" class="node">
<title>46</title>
<path fill="none" stroke="#56a2d8" stroke-width="2" stroke-dasharray="5,2" d="M1539.5,-180C1539.5,-180 1477.5,-180 1477.5,-180 1471.5,-180 1465.5,-174 1465.5,-168 1465.5,-168 1465.5,-156 1465.5,-156 1465.5,-150 1471.5,-144 1477.5,-144 1477.5,-144 1539.5,-144 1539.5,-144 1545.5,-144 1551.5,-150 1551.5,-156 1551.5,-156 1551.5,-168 1551.5,-168 1551.5,-174 1545.5,-180 1539.5,-180"/>
<text text-anchor="middle" x="1508.5" y="-159.5" font-family="sans" font-size="10.00">featureCounts</text>
</g>
<!-- 18&#45;&gt;46 -->
<g id="edge82" class="edge">
<title>18&#45;&gt;46</title>
<path fill="none" stroke="grey" stroke-width="2" d="M1491.94,-215.7C1494.39,-207.9 1497.34,-198.51 1500.07,-189.83"/>
<polygon fill="grey" stroke="grey" stroke-width="2" points="1503.46,-190.69 1503.12,-180.1 1496.79,-188.59 1503.46,-190.69"/>
</g>
<!-- 19 -->
<g id="node20" class="node">
<title>19</title>
<path fill="none" stroke="#56d8c9" stroke-width="2" stroke-dasharray="5,2" d="M1571,-324C1571,-324 1460,-324 1460,-324 1454,-324 1448,-318 1448,-312 1448,-312 1448,-300 1448,-300 1448,-294 1454,-288 1460,-288 1460,-288 1571,-288 1571,-288 1577,-288 1583,-294 1583,-300 1583,-300 1583,-312 1583,-312 1583,-318 1577,-324 1571,-324"/>
<text text-anchor="middle" x="1515.5" y="-309" font-family="sans" font-size="10.00">bbduck_trim</text>
<text text-anchor="middle" x="1515.5" y="-298" font-family="sans" font-size="10.00">samples: h2o2Treated_3</text>
</g>
<!-- 19&#45;&gt;18 -->
<g id="edge54" class="edge">
<title>19&#45;&gt;18</title>
<path fill="none" stroke="grey" stroke-width="2" d="M1508.33,-287.7C1505.07,-279.81 1501.13,-270.3 1497.5,-261.55"/>
<polygon fill="grey" stroke="grey" stroke-width="2" points="1500.65,-260 1493.59,-252.1 1494.18,-262.68 1500.65,-260"/>
</g>
<!-- 34 -->
<g id="node35" class="node">
<title>34</title>
<path fill="none" stroke="#78d856" stroke-width="2" stroke-dasharray="5,2" d="M2193.5,-108C2193.5,-108 2163.5,-108 2163.5,-108 2157.5,-108 2151.5,-102 2151.5,-96 2151.5,-96 2151.5,-84 2151.5,-84 2151.5,-78 2157.5,-72 2163.5,-72 2163.5,-72 2193.5,-72 2193.5,-72 2199.5,-72 2205.5,-78 2205.5,-84 2205.5,-84 2205.5,-96 2205.5,-96 2205.5,-102 2199.5,-108 2193.5,-108"/>
<text text-anchor="middle" x="2178.5" y="-87.5" font-family="sans" font-size="10.00">fastqc</text>
</g>
<!-- 19&#45;&gt;34 -->
<g id="edge70" class="edge">
<title>19&#45;&gt;34</title>
<path fill="none" stroke="grey" stroke-width="2" d="M1583.43,-290.67C1589.52,-289.66 1595.61,-288.75 1601.5,-288 1671.61,-279.13 2187.96,-303.37 2236.5,-252 2272.77,-213.62 2230.71,-150.92 2201.61,-116.17"/>
<polygon fill="grey" stroke="grey" stroke-width="2" points="2204.08,-113.68 2194.91,-108.38 2198.78,-118.25 2204.08,-113.68"/>
</g>
<!-- 20&#45;&gt;0 -->
<g id="edge10" class="edge">
<title>20&#45;&gt;0</title>
<path fill="none" stroke="grey" stroke-width="2" d="M1708.07,-215.73C1716.82,-197.64 1727.3,-168.51 1719.5,-144 1707.61,-106.63 1702.33,-91.84 1668.5,-72 1590.76,-26.4 1311.57,-19.92 1209.88,-19.08"/>
<polygon fill="grey" stroke="grey" stroke-width="2" points="1209.79,-15.58 1199.77,-19.01 1209.75,-22.58 1209.79,-15.58"/>
</g>
<!-- 47 -->
<g id="node48" class="node">
<title>47</title>
<path fill="none" stroke="#56a2d8" stroke-width="2" stroke-dasharray="5,2" d="M1681.5,-180C1681.5,-180 1619.5,-180 1619.5,-180 1613.5,-180 1607.5,-174 1607.5,-168 1607.5,-168 1607.5,-156 1607.5,-156 1607.5,-150 1613.5,-144 1619.5,-144 1619.5,-144 1681.5,-144 1681.5,-144 1687.5,-144 1693.5,-150 1693.5,-156 1693.5,-156 1693.5,-168 1693.5,-168 1693.5,-174 1687.5,-180 1681.5,-180"/>
<text text-anchor="middle" x="1650.5" y="-159.5" font-family="sans" font-size="10.00">featureCounts</text>
</g>
<!-- 20&#45;&gt;47 -->
<g id="edge83" class="edge">
<title>20&#45;&gt;47</title>
<path fill="none" stroke="grey" stroke-width="2" d="M1686.63,-215.7C1681,-207.47 1674.15,-197.48 1667.93,-188.42"/>
<polygon fill="grey" stroke="grey" stroke-width="2" points="1670.77,-186.37 1662.23,-180.1 1665,-190.33 1670.77,-186.37"/>
</g>
<!-- 21 -->
<g id="node22" class="node">
<title>21</title>
<path fill="none" stroke="#56d8c9" stroke-width="2" stroke-dasharray="5,2" d="M1786.5,-324C1786.5,-324 1622.5,-324 1622.5,-324 1616.5,-324 1610.5,-318 1610.5,-312 1610.5,-312 1610.5,-300 1610.5,-300 1610.5,-294 1616.5,-288 1622.5,-288 1622.5,-288 1786.5,-288 1786.5,-288 1792.5,-288 1798.5,-294 1798.5,-300 1798.5,-300 1798.5,-312 1798.5,-312 1798.5,-318 1792.5,-324 1786.5,-324"/>
<text text-anchor="middle" x="1704.5" y="-309" font-family="sans" font-size="10.00">bbduck_trim</text>
<text text-anchor="middle" x="1704.5" y="-298" font-family="sans" font-size="10.00">samples: feStarved_h2o2Treated_1</text>
</g>
<!-- 21&#45;&gt;20 -->
<g id="edge56" class="edge">
<title>21&#45;&gt;20</title>
<path fill="none" stroke="grey" stroke-width="2" d="M1703.02,-287.7C1702.36,-279.98 1701.56,-270.71 1700.82,-262.11"/>
<polygon fill="grey" stroke="grey" stroke-width="2" points="1704.31,-261.77 1699.97,-252.1 1697.33,-262.37 1704.31,-261.77"/>
</g>
<!-- 35 -->
<g id="node36" class="node">
<title>35</title>
<path fill="none" stroke="#78d856" stroke-width="2" stroke-dasharray="5,2" d="M2265.5,-108C2265.5,-108 2235.5,-108 2235.5,-108 2229.5,-108 2223.5,-102 2223.5,-96 2223.5,-96 2223.5,-84 2223.5,-84 2223.5,-78 2229.5,-72 2235.5,-72 2235.5,-72 2265.5,-72 2265.5,-72 2271.5,-72 2277.5,-78 2277.5,-84 2277.5,-84 2277.5,-96 2277.5,-96 2277.5,-102 2271.5,-108 2265.5,-108"/>
<text text-anchor="middle" x="2250.5" y="-87.5" font-family="sans" font-size="10.00">fastqc</text>
</g>
<!-- 21&#45;&gt;35 -->
<g id="edge71" class="edge">
<title>21&#45;&gt;35</title>
<path fill="none" stroke="grey" stroke-width="2" d="M1798.73,-297.78C1957.44,-285.39 2261.66,-260.6 2269.5,-252 2302.93,-215.29 2281.26,-152.72 2264.56,-117.36"/>
<polygon fill="grey" stroke="grey" stroke-width="2" points="2267.59,-115.58 2260.03,-108.16 2261.3,-118.67 2267.59,-115.58"/>
</g>
<!-- 22&#45;&gt;0 -->
<g id="edge11" class="edge">
<title>22&#45;&gt;0</title>
<path fill="none" stroke="grey" stroke-width="2" d="M1898.62,-215.85C1898.05,-197.09 1895.03,-166.67 1882.5,-144 1859.52,-102.42 1847.04,-91 1803.5,-72 1695.91,-25.05 1328.72,-19.55 1209.91,-19.02"/>
<polygon fill="grey" stroke="grey" stroke-width="2" points="1209.86,-15.52 1199.85,-18.98 1209.84,-22.52 1209.86,-15.52"/>
</g>
<!-- 48 -->
<g id="node49" class="node">
<title>48</title>
<path fill="none" stroke="#56a2d8" stroke-width="2" stroke-dasharray="5,2" d="M1861.5,-180C1861.5,-180 1799.5,-180 1799.5,-180 1793.5,-180 1787.5,-174 1787.5,-168 1787.5,-168 1787.5,-156 1787.5,-156 1787.5,-150 1793.5,-144 1799.5,-144 1799.5,-144 1861.5,-144 1861.5,-144 1867.5,-144 1873.5,-150 1873.5,-156 1873.5,-156 1873.5,-168 1873.5,-168 1873.5,-174 1867.5,-180 1861.5,-180"/>
<text text-anchor="middle" x="1830.5" y="-159.5" font-family="sans" font-size="10.00">featureCounts</text>
</g>
<!-- 22&#45;&gt;48 -->
<g id="edge84" class="edge">
<title>22&#45;&gt;48</title>
<path fill="none" stroke="grey" stroke-width="2" d="M1881.69,-215.7C1873.37,-207.14 1863.19,-196.66 1854.11,-187.3"/>
<polygon fill="grey" stroke="grey" stroke-width="2" points="1856.59,-184.84 1847.12,-180.1 1851.57,-189.72 1856.59,-184.84"/>
</g>
<!-- 23 -->
<g id="node24" class="node">
<title>23</title>
<path fill="none" stroke="#56d8c9" stroke-width="2" stroke-dasharray="5,2" d="M2124.5,-324C2124.5,-324 1960.5,-324 1960.5,-324 1954.5,-324 1948.5,-318 1948.5,-312 1948.5,-312 1948.5,-300 1948.5,-300 1948.5,-294 1954.5,-288 1960.5,-288 1960.5,-288 2124.5,-288 2124.5,-288 2130.5,-288 2136.5,-294 2136.5,-300 2136.5,-300 2136.5,-312 2136.5,-312 2136.5,-318 2130.5,-324 2124.5,-324"/>
<text text-anchor="middle" x="2042.5" y="-309" font-family="sans" font-size="10.00">bbduck_trim</text>
<text text-anchor="middle" x="2042.5" y="-298" font-family="sans" font-size="10.00">samples: feStarved_h2o2Treated_2</text>
</g>
<!-- 23&#45;&gt;22 -->
<g id="edge58" class="edge">
<title>23&#45;&gt;22</title>
<path fill="none" stroke="grey" stroke-width="2" d="M2007.27,-287.88C1987.92,-278.47 1963.73,-266.71 1943.07,-256.67"/>
<polygon fill="grey" stroke="grey" stroke-width="2" points="1944.39,-253.41 1933.86,-252.19 1941.33,-259.71 1944.39,-253.41"/>
</g>
<!-- 36 -->
<g id="node37" class="node">
<title>36</title>
<path fill="none" stroke="#78d856" stroke-width="2" stroke-dasharray="5,2" d="M2337.5,-108C2337.5,-108 2307.5,-108 2307.5,-108 2301.5,-108 2295.5,-102 2295.5,-96 2295.5,-96 2295.5,-84 2295.5,-84 2295.5,-78 2301.5,-72 2307.5,-72 2307.5,-72 2337.5,-72 2337.5,-72 2343.5,-72 2349.5,-78 2349.5,-84 2349.5,-84 2349.5,-96 2349.5,-96 2349.5,-102 2343.5,-108 2337.5,-108"/>
<text text-anchor="middle" x="2322.5" y="-87.5" font-family="sans" font-size="10.00">fastqc</text>
</g>
<!-- 23&#45;&gt;36 -->
<g id="edge72" class="edge">
<title>23&#45;&gt;36</title>
<path fill="none" stroke="grey" stroke-width="2" d="M2136.68,-288.89C2210.44,-275.84 2301.57,-258.58 2307.5,-252 2340.36,-215.51 2335.32,-153.73 2328.83,-118.25"/>
<polygon fill="grey" stroke="grey" stroke-width="2" points="2332.2,-117.26 2326.81,-108.14 2325.34,-118.63 2332.2,-117.26"/>
</g>
<!-- 24&#45;&gt;0 -->
<g id="edge12" class="edge">
<title>24&#45;&gt;0</title>
<path fill="none" stroke="grey" stroke-width="2" d="M2132.83,-215.87C2128.28,-197.13 2119.24,-166.73 2104.5,-144 2079.35,-105.24 2071.82,-90.56 2029.5,-72 1953.76,-38.78 1365.3,-23.33 1209.99,-19.8"/>
<polygon fill="grey" stroke="grey" stroke-width="2" points="1209.64,-16.29 1199.56,-19.57 1209.48,-23.29 1209.64,-16.29"/>
</g>
<!-- 49 -->
<g id="node50" class="node">
<title>49</title>
<path fill="none" stroke="#56a2d8" stroke-width="2" stroke-dasharray="5,2" d="M2083.5,-180C2083.5,-180 2021.5,-180 2021.5,-180 2015.5,-180 2009.5,-174 2009.5,-168 2009.5,-168 2009.5,-156 2009.5,-156 2009.5,-150 2015.5,-144 2021.5,-144 2021.5,-144 2083.5,-144 2083.5,-144 2089.5,-144 2095.5,-150 2095.5,-156 2095.5,-156 2095.5,-168 2095.5,-168 2095.5,-174 2089.5,-180 2083.5,-180"/>
<text text-anchor="middle" x="2052.5" y="-159.5" font-family="sans" font-size="10.00">featureCounts</text>
</g>
<!-- 24&#45;&gt;49 -->
<g id="edge85" class="edge">
<title>24&#45;&gt;49</title>
<path fill="none" stroke="grey" stroke-width="2" d="M2115.74,-215.7C2105.26,-206.97 2092.39,-196.24 2081,-186.75"/>
<polygon fill="grey" stroke="grey" stroke-width="2" points="2082.95,-183.82 2073.03,-180.1 2078.47,-189.19 2082.95,-183.82"/>
</g>
<!-- 25 -->
<g id="node26" class="node">
<title>25</title>
<path fill="none" stroke="#56d8c9" stroke-width="2" stroke-dasharray="5,2" d="M2343.5,-324C2343.5,-324 2179.5,-324 2179.5,-324 2173.5,-324 2167.5,-318 2167.5,-312 2167.5,-312 2167.5,-300 2167.5,-300 2167.5,-294 2173.5,-288 2179.5,-288 2179.5,-288 2343.5,-288 2343.5,-288 2349.5,-288 2355.5,-294 2355.5,-300 2355.5,-300 2355.5,-312 2355.5,-312 2355.5,-318 2349.5,-324 2343.5,-324"/>
<text text-anchor="middle" x="2261.5" y="-309" font-family="sans" font-size="10.00">bbduck_trim</text>
<text text-anchor="middle" x="2261.5" y="-298" font-family="sans" font-size="10.00">samples: feStarved_h2o2Treated_3</text>
</g>
<!-- 25&#45;&gt;24 -->
<g id="edge60" class="edge">
<title>25&#45;&gt;24</title>
<path fill="none" stroke="grey" stroke-width="2" d="M2230.92,-287.88C2214.43,-278.64 2193.88,-267.13 2176.16,-257.21"/>
<polygon fill="grey" stroke="grey" stroke-width="2" points="2177.63,-254.02 2167.2,-252.19 2174.21,-260.13 2177.63,-254.02"/>
</g>
<!-- 37 -->
<g id="node38" class="node">
<title>37</title>
<path fill="none" stroke="#78d856" stroke-width="2" stroke-dasharray="5,2" d="M2409.5,-108C2409.5,-108 2379.5,-108 2379.5,-108 2373.5,-108 2367.5,-102 2367.5,-96 2367.5,-96 2367.5,-84 2367.5,-84 2367.5,-78 2373.5,-72 2379.5,-72 2379.5,-72 2409.5,-72 2409.5,-72 2415.5,-72 2421.5,-78 2421.5,-84 2421.5,-84 2421.5,-96 2421.5,-96 2421.5,-102 2415.5,-108 2409.5,-108"/>
<text text-anchor="middle" x="2394.5" y="-87.5" font-family="sans" font-size="10.00">fastqc</text>
</g>
<!-- 25&#45;&gt;37 -->
<g id="edge73" class="edge">
<title>25&#45;&gt;37</title>
<path fill="none" stroke="grey" stroke-width="2" d="M2300.64,-287.9C2316.56,-279.2 2333.89,-267.22 2345.5,-252 2376.04,-211.96 2387.67,-152.86 2392.01,-118.51"/>
<polygon fill="grey" stroke="grey" stroke-width="2" points="2395.52,-118.62 2393.17,-108.29 2388.56,-117.83 2395.52,-118.62"/>
</g>
<!-- 26&#45;&gt;0 -->
<g id="edge13" class="edge">
<title>26&#45;&gt;0</title>
<path fill="none" stroke="grey" stroke-width="2" d="M28.58,-143.86C27.34,-123.32 28.9,-89.48 49.5,-72 91.81,-36.09 945.42,-22.15 1135.29,-19.49"/>
<polygon fill="grey" stroke="grey" stroke-width="2" points="1135.39,-22.99 1145.34,-19.35 1135.29,-15.99 1135.39,-22.99"/>
</g>
<!-- 27&#45;&gt;0 -->
<g id="edge14" class="edge">
<title>27&#45;&gt;0</title>
<path fill="none" stroke="grey" stroke-width="2" d="M112.61,-74.86C115.55,-73.73 118.55,-72.74 121.5,-72 319.39,-22.36 971.97,-18.99 1135.22,-18.94"/>
<polygon fill="grey" stroke="grey" stroke-width="2" points="1135.26,-22.44 1145.26,-18.94 1135.26,-15.44 1135.26,-22.44"/>
</g>
<!-- 28&#45;&gt;0 -->
<g id="edge15" class="edge">
<title>28&#45;&gt;0</title>
<path fill="none" stroke="grey" stroke-width="2" d="M184.61,-74.87C187.55,-73.74 190.55,-72.75 193.5,-72 376.79,-25.66 979.17,-19.83 1135.28,-19.1"/>
<polygon fill="grey" stroke="grey" stroke-width="2" points="1135.34,-22.6 1145.33,-19.06 1135.31,-15.6 1135.34,-22.6"/>
</g>
<!-- 29&#45;&gt;0 -->
<g id="edge16" class="edge">
<title>29&#45;&gt;0</title>
<path fill="none" stroke="grey" stroke-width="2" d="M256.88,-76.18C261.35,-74.52 265.99,-73.04 270.5,-72 439.04,-33.27 986.34,-21.94 1134.96,-19.54"/>
<polygon fill="grey" stroke="grey" stroke-width="2" points="1135.42,-23.03 1145.36,-19.38 1135.31,-16.04 1135.42,-23.03"/>
</g>
<!-- 30&#45;&gt;0 -->
<g id="edge17" class="edge">
<title>30&#45;&gt;0</title>
<path fill="none" stroke="grey" stroke-width="2" d="M366.88,-76.22C371.35,-74.55 376,-73.05 380.5,-72 526.66,-37.79 997.6,-23.42 1134.71,-19.9"/>
<polygon fill="grey" stroke="grey" stroke-width="2" points="1135.2,-23.39 1145.11,-19.64 1135.02,-16.39 1135.2,-23.39"/>
</g>
<!-- 31&#45;&gt;0 -->
<g id="edge18" class="edge">
<title>31&#45;&gt;0</title>
<path fill="none" stroke="grey" stroke-width="2" d="M738.94,-76.45C743.4,-74.75 748.03,-73.19 752.5,-72 890.62,-35.36 1061.22,-23.8 1135.28,-20.36"/>
<polygon fill="grey" stroke="grey" stroke-width="2" points="1135.65,-23.85 1145.49,-19.91 1135.35,-16.86 1135.65,-23.85"/>
</g>
<!-- 32&#45;&gt;0 -->
<g id="edge19" class="edge">
<title>32&#45;&gt;0</title>
<path fill="none" stroke="grey" stroke-width="2" d="M1536.44,-80.13C1527.03,-77.26 1516.37,-74.24 1506.5,-72 1399.89,-47.75 1271.64,-30.74 1209.65,-23.26"/>
<polygon fill="grey" stroke="grey" stroke-width="2" points="1209.92,-19.77 1199.57,-22.06 1209.09,-26.72 1209.92,-19.77"/>
</g>
<!-- 33&#45;&gt;0 -->
<g id="edge20" class="edge">
<title>33&#45;&gt;0</title>
<path fill="none" stroke="grey" stroke-width="2" d="M1937.39,-78.17C1930.36,-75.76 1922.73,-73.49 1915.5,-72 1778.27,-43.81 1341.14,-25.37 1210.02,-20.37"/>
<polygon fill="grey" stroke="grey" stroke-width="2" points="1209.83,-16.86 1199.71,-19.98 1209.57,-23.86 1209.83,-16.86"/>
</g>
<!-- 34&#45;&gt;0 -->
<g id="edge21" class="edge">
<title>34&#45;&gt;0</title>
<path fill="none" stroke="grey" stroke-width="2" d="M2151.13,-76.17C2146.65,-74.51 2142.01,-73.03 2137.5,-72 1956.17,-30.7 1365.28,-21.18 1210.1,-19.38"/>
<polygon fill="grey" stroke="grey" stroke-width="2" points="1209.74,-15.87 1199.7,-19.26 1209.66,-22.87 1209.74,-15.87"/>
</g>
<!-- 35&#45;&gt;0 -->
<g id="edge22" class="edge">
<title>35&#45;&gt;0</title>
<path fill="none" stroke="grey" stroke-width="2" d="M2223.39,-74.86C2220.45,-73.73 2217.45,-72.74 2214.5,-72 2018.5,-22.79 1372.61,-19.1 1209.95,-18.96"/>
<polygon fill="grey" stroke="grey" stroke-width="2" points="1209.51,-15.46 1199.51,-18.96 1209.51,-22.46 1209.51,-15.46"/>
</g>
<!-- 36&#45;&gt;0 -->
<g id="edge23" class="edge">
<title>36&#45;&gt;0</title>
<path fill="none" stroke="grey" stroke-width="2" d="M2295.4,-74.85C2292.45,-73.72 2289.45,-72.74 2286.5,-72 2075.91,-19.49 1379.8,-18.3 1210.07,-18.82"/>
<polygon fill="grey" stroke="grey" stroke-width="2" points="1209.87,-15.32 1199.88,-18.85 1209.89,-22.32 1209.87,-15.32"/>
</g>
<!-- 37&#45;&gt;0 -->
<g id="edge24" class="edge">
<title>37&#45;&gt;0</title>
<path fill="none" stroke="grey" stroke-width="2" d="M2367.4,-74.84C2364.45,-73.71 2361.45,-72.73 2358.5,-72 2133.04,-16.13 1385.21,-17.56 1209.63,-18.7"/>
<polygon fill="grey" stroke="grey" stroke-width="2" points="1209.57,-15.2 1199.6,-18.76 1209.62,-22.2 1209.57,-15.2"/>
</g>
<!-- 38&#45;&gt;0 -->
<g id="edge25" class="edge">
<title>38&#45;&gt;0</title>
<path fill="none" stroke="grey" stroke-width="2" d="M416.13,-143.77C423.99,-122.79 440.4,-88.17 467.5,-72 525.09,-37.63 998.19,-23.32 1135.36,-19.86"/>
<polygon fill="grey" stroke="grey" stroke-width="2" points="1135.47,-23.36 1145.38,-19.62 1135.3,-16.36 1135.47,-23.36"/>
</g>
<!-- 50 -->
<g id="node51" class="node">
<title>50</title>
<path fill="none" stroke="#56d87b" stroke-width="2" stroke-dasharray="5,2" d="M1195.5,-108C1195.5,-108 1149.5,-108 1149.5,-108 1143.5,-108 1137.5,-102 1137.5,-96 1137.5,-96 1137.5,-84 1137.5,-84 1137.5,-78 1143.5,-72 1149.5,-72 1149.5,-72 1195.5,-72 1195.5,-72 1201.5,-72 1207.5,-78 1207.5,-84 1207.5,-84 1207.5,-96 1207.5,-96 1207.5,-102 1201.5,-108 1195.5,-108"/>
<text text-anchor="middle" x="1172.5" y="-87.5" font-family="sans" font-size="10.00">counts_tab</text>
</g>
<!-- 38&#45;&gt;50 -->
<g id="edge86" class="edge">
<title>38&#45;&gt;50</title>
<path fill="none" stroke="grey" stroke-width="2" d="M453.83,-151.83C468.59,-148.98 485.21,-146.04 500.5,-144 735.13,-112.68 1018.5,-97.77 1127.12,-92.89"/>
<polygon fill="grey" stroke="grey" stroke-width="2" points="1127.54,-96.37 1137.38,-92.43 1127.23,-89.38 1127.54,-96.37"/>
</g>
<!-- 39&#45;&gt;0 -->
<g id="edge26" class="edge">
<title>39&#45;&gt;0</title>
<path fill="none" stroke="grey" stroke-width="2" d="M565.92,-143.74C583.35,-122.74 615.91,-88.1 652.5,-72 739.33,-33.8 1031.16,-22.65 1135.24,-19.84"/>
<polygon fill="grey" stroke="grey" stroke-width="2" points="1135.37,-23.34 1145.28,-19.58 1135.19,-16.34 1135.37,-23.34"/>
</g>
<!-- 39&#45;&gt;50 -->
<g id="edge87" class="edge">
<title>39&#45;&gt;50</title>
<path fill="none" stroke="grey" stroke-width="2" d="M595.72,-146.07C598.67,-145.3 601.62,-144.6 604.5,-144 796.08,-104.27 1030.22,-94.29 1127.15,-91.81"/>
<polygon fill="grey" stroke="grey" stroke-width="2" points="1127.28,-95.31 1137.19,-91.57 1127.11,-88.31 1127.28,-95.31"/>
</g>
<!-- 40&#45;&gt;0 -->
<g id="edge27" class="edge">
<title>40&#45;&gt;0</title>
<path fill="none" stroke="grey" stroke-width="2" d="M654.74,-143.7C653.71,-123.33 655.55,-89.98 675.5,-72 709.5,-41.36 1025.01,-25.23 1134.94,-20.5"/>
<polygon fill="grey" stroke="grey" stroke-width="2" points="1135.38,-23.98 1145.22,-20.06 1135.08,-16.99 1135.38,-23.98"/>
</g>
<!-- 40&#45;&gt;50 -->
<g id="edge88" class="edge">
<title>40&#45;&gt;50</title>
<path fill="none" stroke="grey" stroke-width="2" d="M699.61,-155.15C796.11,-142.06 1028.76,-110.5 1127.24,-97.14"/>
<polygon fill="grey" stroke="grey" stroke-width="2" points="1127.74,-100.6 1137.18,-95.79 1126.8,-93.67 1127.74,-100.6"/>
</g>
<!-- 41&#45;&gt;0 -->
<g id="edge28" class="edge">
<title>41&#45;&gt;0</title>
<path fill="none" stroke="grey" stroke-width="2" d="M842.58,-143.89C850.81,-123.38 867.51,-89.57 893.5,-72 932.47,-45.66 1068.32,-29.14 1135,-22.44"/>
<polygon fill="grey" stroke="grey" stroke-width="2" points="1135.47,-25.91 1145.08,-21.45 1134.79,-18.94 1135.47,-25.91"/>
</g>
<!-- 41&#45;&gt;50 -->
<g id="edge89" class="edge">
<title>41&#45;&gt;50</title>
<path fill="none" stroke="grey" stroke-width="2" d="M879.74,-151.99C943.5,-138.71 1062.2,-113.98 1127.15,-100.45"/>
<polygon fill="grey" stroke="grey" stroke-width="2" points="1128.02,-103.84 1137.1,-98.38 1126.59,-96.99 1128.02,-103.84"/>
</g>
<!-- 42&#45;&gt;0 -->
<g id="edge29" class="edge">
<title>42&#45;&gt;0</title>
<path fill="none" stroke="grey" stroke-width="2" d="M985.46,-143.95C994.34,-124.12 1011.49,-91.62 1035.5,-72 1064.73,-48.11 1105.97,-34.13 1135.56,-26.58"/>
<polygon fill="grey" stroke="grey" stroke-width="2" points="1136.6,-29.93 1145.49,-24.17 1134.95,-23.13 1136.6,-29.93"/>
</g>
<!-- 42&#45;&gt;50 -->
<g id="edge90" class="edge">
<title>42&#45;&gt;50</title>
<path fill="none" stroke="grey" stroke-width="2" d="M1021.55,-145.46C1053.12,-134.08 1095.85,-118.66 1127.8,-107.13"/>
<polygon fill="grey" stroke="grey" stroke-width="2" points="1129.12,-110.37 1137.34,-103.69 1126.75,-103.79 1129.12,-110.37"/>
</g>
<!-- 43&#45;&gt;0 -->
<g id="edge30" class="edge">
<title>43&#45;&gt;0</title>
<path fill="none" stroke="grey" stroke-width="2" d="M1119.1,-143.89C1118.24,-125.43 1118.8,-95.52 1128.5,-72 1132.72,-61.78 1139.63,-52.03 1146.73,-43.74"/>
<polygon fill="grey" stroke="grey" stroke-width="2" points="1149.39,-46.03 1153.53,-36.28 1144.21,-41.32 1149.39,-46.03"/>
</g>
<!-- 43&#45;&gt;50 -->
<g id="edge91" class="edge">
<title>43&#45;&gt;50</title>
<path fill="none" stroke="grey" stroke-width="2" d="M1133.35,-143.7C1139.53,-135.39 1147.04,-125.28 1153.82,-116.14"/>
<polygon fill="grey" stroke="grey" stroke-width="2" points="1156.64,-118.22 1159.79,-108.1 1151.02,-114.04 1156.64,-118.22"/>
</g>
<!-- 44&#45;&gt;0 -->
<g id="edge31" class="edge">
<title>44&#45;&gt;0</title>
<path fill="none" stroke="grey" stroke-width="2" d="M1225.9,-143.89C1226.76,-125.43 1226.2,-95.52 1216.5,-72 1212.28,-61.78 1205.37,-52.03 1198.27,-43.74"/>
<polygon fill="grey" stroke="grey" stroke-width="2" points="1200.79,-41.32 1191.47,-36.28 1195.61,-46.03 1200.79,-41.32"/>
</g>
<!-- 44&#45;&gt;50 -->
<g id="edge92" class="edge">
<title>44&#45;&gt;50</title>
<path fill="none" stroke="grey" stroke-width="2" d="M1211.65,-143.7C1205.47,-135.39 1197.96,-125.28 1191.18,-116.14"/>
<polygon fill="grey" stroke="grey" stroke-width="2" points="1193.98,-114.04 1185.21,-108.1 1188.36,-118.22 1193.98,-114.04"/>
</g>
<!-- 45&#45;&gt;0 -->
<g id="edge32" class="edge">
<title>45&#45;&gt;0</title>
<path fill="none" stroke="grey" stroke-width="2" d="M1359.54,-143.95C1350.66,-124.12 1333.51,-91.62 1309.5,-72 1280.27,-48.11 1239.03,-34.13 1209.44,-26.58"/>
<polygon fill="grey" stroke="grey" stroke-width="2" points="1210.05,-23.13 1199.51,-24.17 1208.4,-29.93 1210.05,-23.13"/>
</g>
<!-- 45&#45;&gt;50 -->
<g id="edge93" class="edge">
<title>45&#45;&gt;50</title>
<path fill="none" stroke="grey" stroke-width="2" d="M1323.45,-145.46C1291.88,-134.08 1249.15,-118.66 1217.2,-107.13"/>
<polygon fill="grey" stroke="grey" stroke-width="2" points="1218.25,-103.79 1207.66,-103.69 1215.88,-110.37 1218.25,-103.79"/>
</g>
<!-- 46&#45;&gt;0 -->
<g id="edge33" class="edge">
<title>46&#45;&gt;0</title>
<path fill="none" stroke="grey" stroke-width="2" d="M1502.42,-143.89C1494.19,-123.38 1477.49,-89.57 1451.5,-72 1412.53,-45.66 1276.68,-29.14 1210,-22.44"/>
<polygon fill="grey" stroke="grey" stroke-width="2" points="1210.21,-18.94 1199.92,-21.45 1209.53,-25.91 1210.21,-18.94"/>
</g>
<!-- 46&#45;&gt;50 -->
<g id="edge94" class="edge">
<title>46&#45;&gt;50</title>
<path fill="none" stroke="grey" stroke-width="2" d="M1465.26,-151.99C1401.5,-138.71 1282.8,-113.98 1217.85,-100.45"/>
<polygon fill="grey" stroke="grey" stroke-width="2" points="1218.41,-96.99 1207.9,-98.38 1216.98,-103.84 1218.41,-96.99"/>
</g>
<!-- 47&#45;&gt;0 -->
<g id="edge34" class="edge">
<title>47&#45;&gt;0</title>
<path fill="none" stroke="grey" stroke-width="2" d="M1645.75,-143.66C1639.09,-122.91 1624.86,-88.87 1599.5,-72 1535.93,-29.72 1301.65,-21.17 1209.79,-19.44"/>
<polygon fill="grey" stroke="grey" stroke-width="2" points="1209.63,-15.93 1199.57,-19.26 1209.51,-22.93 1209.63,-15.93"/>
</g>
<!-- 47&#45;&gt;50 -->
<g id="edge95" class="edge">
<title>47&#45;&gt;50</title>
<path fill="none" stroke="grey" stroke-width="2" d="M1607.09,-152.34C1592.33,-149.52 1575.72,-146.48 1560.5,-144 1436.9,-123.9 1290.3,-105.29 1217.78,-96.43"/>
<polygon fill="grey" stroke="grey" stroke-width="2" points="1217.98,-92.92 1207.63,-95.19 1217.14,-99.87 1217.98,-92.92"/>
</g>
<!-- 48&#45;&gt;0 -->
<g id="edge35" class="edge">
<title>48&#45;&gt;0</title>
<path fill="none" stroke="grey" stroke-width="2" d="M1824.84,-143.82C1816.95,-122.91 1800.49,-88.35 1773.5,-72 1725.29,-42.8 1333.34,-25.24 1209.71,-20.38"/>
<polygon fill="grey" stroke="grey" stroke-width="2" points="1209.73,-16.88 1199.6,-19.99 1209.46,-23.88 1209.73,-16.88"/>
</g>
<!-- 48&#45;&gt;50 -->
<g id="edge96" class="edge">
<title>48&#45;&gt;50</title>
<path fill="none" stroke="grey" stroke-width="2" d="M1787.29,-154.91C1762.5,-151.5 1730.78,-147.29 1702.5,-144 1523.18,-123.13 1309.13,-103.27 1217.61,-95.01"/>
<polygon fill="grey" stroke="grey" stroke-width="2" points="1217.86,-91.52 1207.58,-94.11 1217.23,-98.49 1217.86,-91.52"/>
</g>
<!-- 49&#45;&gt;0 -->
<g id="edge36" class="edge">
<title>49&#45;&gt;0</title>
<path fill="none" stroke="grey" stroke-width="2" d="M2047.84,-143.76C2041.16,-122.79 2026.69,-88.17 2000.5,-72 1932.64,-30.12 1362.67,-21.04 1210,-19.35"/>
<polygon fill="grey" stroke="grey" stroke-width="2" points="1209.77,-15.84 1199.74,-19.24 1209.7,-22.84 1209.77,-15.84"/>
</g>
<!-- 49&#45;&gt;50 -->
<g id="edge97" class="edge">
<title>49&#45;&gt;50</title>
<path fill="none" stroke="grey" stroke-width="2" d="M2009.21,-156.37C1974.87,-152.77 1925.64,-147.77 1882.5,-144 1631.69,-122.1 1330.54,-101.5 1217.92,-93.99"/>
<polygon fill="grey" stroke="grey" stroke-width="2" points="1217.83,-90.48 1207.62,-93.31 1217.36,-97.46 1217.83,-90.48"/>
</g>
<!-- 50&#45;&gt;0 -->
<g id="edge37" class="edge">
<title>50&#45;&gt;0</title>
<path fill="none" stroke="grey" stroke-width="2" d="M1172.5,-71.7C1172.5,-63.98 1172.5,-54.71 1172.5,-46.11"/>
<polygon fill="grey" stroke="grey" stroke-width="2" points="1176,-46.1 1172.5,-36.1 1169,-46.1 1176,-46.1"/>
</g>
</g>
</svg>
